<svg xmlns="http://www.w3.org/2000/svg" xmlns:xlink="http://www.w3.org/1999/xlink" width="500" zoomAndPan="magnify" viewBox="0 0 375 149.999998" height="200" preserveAspectRatio="xMidYMid meet" version="1.0"><defs><g/></defs><g fill="#189ab4" fill-opacity="1"><g transform="translate(6.944534, 94.947585)"><g><path d="M 9.972656 -39.886719 L 3.324219 -39.886719 L 3.324219 -26.59375 L 9.972656 -26.59375 Z M 3.324219 -6.648438 L 9.972656 -6.648438 L 9.972656 -13.296875 L 3.324219 -13.296875 Z M 9.972656 0 L 29.917969 0 L 29.917969 -6.648438 L 9.972656 -6.648438 Z M 9.972656 -19.945312 L 29.917969 -19.945312 L 29.917969 -26.59375 L 9.972656 -26.59375 Z M 9.972656 -39.886719 L 29.917969 -39.886719 L 29.917969 -46.535156 L 9.972656 -46.535156 Z M 29.917969 -6.648438 L 36.566406 -6.648438 L 36.566406 -19.945312 L 29.917969 -19.945312 Z M 29.917969 -33.242188 L 36.566406 -33.242188 L 36.566406 -39.886719 L 29.917969 -39.886719 Z M 29.917969 -33.242188 "/></g></g></g><g fill="#189ab4" fill-opacity="1"><g transform="translate(50.419902, 94.947585)"><g><path d="M 3.324219 0 L 9.972656 0 L 9.972656 -46.535156 L 3.324219 -46.535156 Z M 3.324219 0 "/></g></g></g><g fill="#189ab4" fill-opacity="1"><g transform="translate(67.305387, 94.947585)"><g><path d="M 3.324219 0 L 29.917969 0 L 29.917969 -6.648438 L 9.972656 -6.648438 L 9.972656 -39.886719 L 29.917969 -39.886719 L 29.917969 -46.535156 L 3.324219 -46.535156 Z M 29.917969 -6.648438 L 36.566406 -6.648438 L 36.566406 -39.886719 L 29.917969 -39.886719 Z M 29.917969 -6.648438 "/></g></g></g><g fill="#189ab4" fill-opacity="1"><g transform="translate(110.780759, 94.947585)"><g><path d="M 3.324219 0 L 36.496094 0 L 36.496094 -6.648438 L 9.972656 -6.648438 L 9.972656 -19.945312 L 29.917969 -19.945312 L 29.917969 -26.59375 L 9.972656 -26.59375 L 9.972656 -39.886719 L 36.566406 -39.886719 L 36.566406 -46.535156 L 3.324219 -46.535156 Z M 3.324219 0 "/></g></g></g><g fill="#d4f1f4" fill-opacity="1"><g transform="translate(154.265786, 94.947585)"><g><path d="M 16.621094 6.648438 L 23.269531 6.648438 L 23.269531 0 L 29.917969 0 L 29.917969 -6.648438 L 9.972656 -6.648438 L 9.972656 0 L 16.621094 0 Z M 3.324219 -6.648438 L 9.972656 -6.648438 L 9.972656 -39.886719 L 3.324219 -39.886719 Z M 9.972656 -39.886719 L 29.917969 -39.886719 L 29.917969 -46.535156 L 9.972656 -46.535156 Z M 23.269531 13.296875 L 29.917969 13.296875 L 29.917969 6.648438 L 23.269531 6.648438 Z M 29.917969 -6.648438 L 36.566406 -6.648438 L 36.566406 -39.886719 L 29.917969 -39.886719 Z M 29.917969 -6.648438 "/></g></g></g><g fill="#d4f1f4" fill-opacity="1"><g transform="translate(197.741154, 94.947585)"><g><path d="M 29.917969 -6.648438 L 9.972656 -6.648438 L 9.972656 0 L 29.917969 0 Z M 3.324219 -6.648438 L 9.972656 -6.648438 L 9.972656 -46.535156 L 3.324219 -46.535156 Z M 29.917969 -6.648438 L 36.566406 -6.648438 L 36.566406 -46.535156 L 29.917969 -46.535156 Z M 29.917969 -6.648438 "/></g></g></g><g fill="#d4f1f4" fill-opacity="1"><g transform="translate(241.216522, 94.947585)"><g><path d="M 3.324219 0 L 36.496094 0 L 36.496094 -6.648438 L 9.972656 -6.648438 L 9.972656 -19.945312 L 29.917969 -19.945312 L 29.917969 -26.59375 L 9.972656 -26.59375 L 9.972656 -39.886719 L 36.566406 -39.886719 L 36.566406 -46.535156 L 3.324219 -46.535156 Z M 3.324219 0 "/></g></g></g><g fill="#d4f1f4" fill-opacity="1"><g transform="translate(284.691895, 94.947585)"><g><path d="M 9.972656 -39.886719 L 3.324219 -39.886719 L 3.324219 -26.59375 L 9.972656 -26.59375 Z M 3.324219 -6.648438 L 9.972656 -6.648438 L 9.972656 -13.296875 L 3.324219 -13.296875 Z M 9.972656 0 L 29.917969 0 L 29.917969 -6.648438 L 9.972656 -6.648438 Z M 9.972656 -19.945312 L 29.917969 -19.945312 L 29.917969 -26.59375 L 9.972656 -26.59375 Z M 9.972656 -39.886719 L 29.917969 -39.886719 L 29.917969 -46.535156 L 9.972656 -46.535156 Z M 29.917969 -6.648438 L 36.566406 -6.648438 L 36.566406 -19.945312 L 29.917969 -19.945312 Z M 29.917969 -33.242188 L 36.566406 -33.242188 L 36.566406 -39.886719 L 29.917969 -39.886719 Z M 29.917969 -33.242188 "/></g></g></g><g fill="#d4f1f4" fill-opacity="1"><g transform="translate(328.16726, 94.947585)"><g><path d="M 16.621094 0 L 23.269531 0 L 23.269531 -39.886719 L 36.566406 -39.886719 L 36.566406 -46.535156 L 3.324219 -46.535156 L 3.324219 -39.886719 L 16.621094 -39.886719 Z M 16.621094 0 "/></g></g></g></svg>